# xmcd
#
# Track frame offsets:
#	150
#	12484
#	24090
#	35928
#	47999
#	60936
#	73028
#	84985
#	97887
#	112953
#	125868
#	138532
#
# Disc length: 2003 seconds
#
# Revision: 1
# Processed by: cddbd v1.5.2PL0 Copyright (c) Steve Scherf et al.
# Submitted via: audiograbber 1.83.01
#
DISCID=a007d10c
DTITLE=Kenny Baker - A Baker's Dozen
DYEAR=1970
DGENRE=Bluegrass
TTITLE0=Johnny the Blacksmith
TTITLE1=Shelby Rock
TTITLE2=Sam's Tune
TTITLE3=Ragtime Annie
TTITLE4=Doc Harris, the Fisherman
TTITLE5=Sail Away Ladies
TTITLE6=Greenleaf Breakdown
TTITLE7=Cross-eyed Fiddler
TTITLE8=Black Mountain Rag
TTITLE9=Indian Killed a Woodcock
TTITLE10=Denver Belle
TTITLE11=Hickman County Breakdown
EXTD=\n\n
EXTT0=
EXTT1=
EXTT2=
EXTT3=
EXTT4=
EXTT5=
EXTT6=
EXTT7=
EXTT8=
EXTT9=
EXTT10=
EXTT11=
PLAYORDER=
